#!OML:ASF F:\VICON\USERDATA\INSTALL\Justin_Nancy\Justin_Nancy.ASF
:FULLY-SPECIFIED
:DEGREES
316
root 5.12873 17.2268 13.5058 -1.37446 37.5542 -5.43498
lowerback 4.51419 0.943429 3.59534
upperback -0.314141 1.57237 3.31389
thorax -2.85528 0.763673 1.28991
lowerneck -14.7083 -3.27101 -9.26153
upperneck 24.3842 -3.01958 3.69533
head 10.456 -1.7528 2.48645
rclavicle -1.41634e-014 2.70347e-014
rhumerus -25.0954 -8.11941 -79.125
rradius 36.9636
rwrist 4.15244
rhand -16.7608 14.4411
rfingers 7.12502
rthumb 9.46619 -15.3262
lclavicle -1.41634e-014 2.70347e-014
lhumerus -36.2586 16.3546 82.7838
lradius 20.0318
lwrist -17.4017
lhand -11.6347 23.338
lfingers 7.12502
lthumb 14.409 52.8178
rfemur 9.88892 2.16842 30.6163
rtibia 18.5793
rfoot -15.41 -0.550333
rtoes -9.44481
lfemur -31.4087 -2.93693 -16.1156
ltibia 22.5213
lfoot -11.9579 7.25114
ltoes -0.845895
317
root 5.24709 17.2098 13.6289 -1.43038 37.4735 -5.43024
lowerback 4.60665 1.04085 3.83824
upperback -0.36285 1.71834 3.17357
thorax -2.94586 0.829464 0.997369
lowerneck -14.9005 -3.36177 -9.41445
upperneck 24.6559 -3.14166 3.89586
head 10.6082 -1.80121 2.57005
rclavicle 1.26154e-013 2.22639e-014
rhumerus -25.3652 -8.46576 -79.1548
rradius 37.2116
rwrist 4.37818
rhand -16.5997 13.7655
rfingers 7.12502
rthumb 9.62157 -15.9948
lclavicle 1.26154e-013 2.22639e-014
lhumerus -36.4453 14.0103 83.8707
lradius 20.7217
lwrist -14.8594
lhand -11.7349 24.6058
lfingers 7.12502
lthumb 14.3125 54.0926
rfemur 10.1165 1.82683 30.5073
rtibia 19.6251
rfoot -15.2515 -0.566248
rtoes -14.2442
lfemur -31.1731 -2.50879 -16.4027
ltibia 22.9483
lfoot -11.3523 6.22956
ltoes -2.82468
318
root 5.36402 17.2023 13.7652 -1.53943 37.4193 -5.33447
lowerback 4.70902 1.10501 3.83604
upperback -0.361978 1.80751 3.11194
thorax -2.99965 0.872346 0.926678
lowerneck -15.0773 -3.51456 -9.87675
upperneck 24.9136 -3.30735 4.23243
head 10.7672 -1.8824 2.74932
rclavicle 8.74404e-014 -5.88403e-014
rhumerus -25.6645 -8.37616 -79.1807
rradius 37.1461
rwrist 3.53823
rhand -17.0418 14.4443
rfingers 7.12502
rthumb 9.19501 -15.3352
lclavicle 8.74404e-014 -5.88403e-014
lhumerus -36.6132 14.16 83.6975
lradius 20.5755
lwrist -15.2004
lhand -11.8851 25.4504
lfingers 7.12502
lthumb 14.1677 54.9473
rfemur 10.4892 1.8048 30.438
rtibia 20.5899
rfoot -15.0822 -0.716159
rtoes -17.8705
lfemur -30.7773 -2.42637 -16.5834
ltibia 23.5046
lfoot -10.6473 5.29259
ltoes -3.70511
319
root 5.48681 17.2124 13.9008 -1.55056 37.2077 -5.17675
lowerback 4.55193 1.1412 3.66674
upperback -0.265254 1.83171 3.11717
thorax -2.81621 0.889959 1.02905
lowerneck -15.013 -3.51909 -9.95583
upperneck 24.8266 -3.29014 4.19914
head 10.7228 -1.88553 2.7519
rclavicle 5.71257e-014 -1.27222e-014
rhumerus -25.7661 -8.22797 -79.2414
rradius 36.9225
rwrist 2.68361
rhand -17.679 15.8228
rfingers 7.12502
rthumb 8.5801 -13.9829
lclavicle 5.71257e-014 -1.27222e-014
lhumerus -36.5092 17.293 82.0777
lradius 19.2931
lwrist -18.7107
lhand -11.9526 24.3003
lfingers 7.12502
lthumb 14.1027 53.8017
rfemur 10.683 1.94031 30.2209
rtibia 21.5661
rfoot -14.4362 -0.140744
rtoes -16.7864
lfemur -30.386 -2.10915 -16.841
ltibia 24.0756
lfoot -9.63513 4.42476
ltoes -5.48948
320
root 5.61125 17.2318 14.0312 -1.34228 37.003 -4.78984
lowerback 4.3551 1.21339 3.35469
upperback -0.221285 1.89363 3.02864
thorax -2.66619 0.926059 1.11257
lowerneck -14.8932 -3.46707 -9.88684
upperneck 24.7229 -3.23488 4.15417
head 10.6542 -1.85861 2.73106
rclavicle -3.8117e-014 -4.77083e-015
rhumerus -26.0436 -8.61528 -79.1727
rradius 37.1529
rwrist 2.87756
rhand -17.2642 15.756
rfingers 7.12502
rthumb 8.98039 -14.0329
lclavicle -3.8117e-014 -4.77083e-015
lhumerus -36.6688 15.0749 83.2772
lradius 20.1525
lwrist -16.2375
lhand -12.0048 25.3028
lfingers 7.12502
lthumb 14.0524 54.8078
rfemur 10.5547 2.01122 29.7358
rtibia 22.7488
rfoot -13.8786 0.49113
rtoes -19.019
lfemur -30.0677 -2.06345 -17.2338
ltibia 24.524
lfoot -8.58794 4.46677
ltoes -6.88597
321
root 5.73233 17.2584 14.1696 -1.15558 36.9535 -4.25462
lowerback 4.3656 1.29906 2.98456
upperback -0.226705 1.98117 2.82708
thorax -2.68198 0.972129 1.1055
lowerneck -14.6553 -3.48079 -9.65626
upperneck 24.6888 -3.33994 4.15759
head 10.5975 -1.88568 2.68055
rclavicle -5.61815e-014 -3.33958e-014
rhumerus -26.4125 -9.40569 -79.0752
rradius 37.5351
rwrist 3.23277
rhand -16.1551 14.717
rfingers 7.12502
rthumb 10.0505 -15.023
lclavicle -5.61815e-014 -3.33958e-014
lhumerus -36.7332 15.6244 82.7944
lradius 19.6819
lwrist -17.0716
lhand -11.8991 24.7231
lfingers 7.12502
lthumb 14.1542 54.2209
rfemur 10.2477 2.20587 29.2291
rtibia 24.1845
rfoot -13.4301 1.01041
rtoes -24.4471
lfemur -29.5009 -2.321 -17.6996
ltibia 24.7591
lfoot -8.03256 4.71519
ltoes -5.67351
322
root 5.85812 17.2691 14.3053 -0.777291 36.9807 -3.31535
lowerback 4.38303 1.30451 2.26471
upperback -0.19493 1.94185 2.6191
thorax -2.67481 0.960116 1.29603
lowerneck -14.7321 -3.5377 -9.73949
upperneck 25.0038 -3.40755 4.21952
head 10.7375 -1.91991 2.71179
rclavicle -1.27222e-014 -2.14687e-014
rhumerus -26.6637 -9.67931 -79.0631
rradius 37.7299
rwrist 3.1731
rhand -15.8071 13.6556
rfingers 7.12502
rthumb 10.3862 -16.0679
lclavicle -1.27222e-014 -2.14687e-014
lhumerus -36.7327 16.3093 82.3544
lradius 19.2144
lwrist -17.6449
lhand -11.7283 24.0287
lfingers 7.12502
lthumb 14.3189 53.515
rfemur 10.313 2.17557 28.3455
rtibia 25.8777
rfoot -12.8559 1.18558
rtoes -26.5556
lfemur -28.8143 -2.27255 -18.6995
ltibia 24.8632
lfoot -7.45374 4.02268
ltoes -3.25814
323
root 5.98417 17.2902 14.4458 -0.483094 36.897 -2.66006
lowerback 4.23112 1.26559 1.68987
upperback -0.166249 1.84833 2.4841
thorax -2.57245 0.920262 1.48861
lowerneck -15.1683 -3.57749 -10.5501
upperneck 25.6076 -3.3539 4.77684
head 11.0728 -1.91093 3.06779
rclavicle 1.07592e-014 -1.19271e-014
rhumerus -26.8552 -9.75641 -79.2134
rradius 37.6083
rwrist 3.39328
rhand -16.2513 13.3881
rfingers 7.12502
rthumb 9.95776 -16.3564
lclavicle 1.07592e-014 -1.19271e-014
lhumerus -36.7758 15.6547 82.6219
lradius 19.3209
lwrist -16.5243
lhand -11.5602 25.071
lfingers 7.12502
lthumb 14.4808 54.5457
rfemur 9.72858 2.53652 27.6996
rtibia 27.7527
rfoot -11.0856 2.24109
rtoes -18.2679
lfemur -28.1792 -2.11653 -19.397
ltibia 24.9189
lfoot -6.75927 3.13013
ltoes -3.63969
324
root 6.09435 17.3041 14.5867 -0.38458 37.0981 -2.22962
lowerback 4.36633 1.17736 1.25519
upperback -0.263279 1.70981 2.33562
thorax -2.75418 0.854942 1.58429
lowerneck -14.5121 -3.37402 -9.57388
upperneck 25.3423 -3.21246 4.11974
head 10.7986 -1.83181 2.68207
rclavicle -1.96797e-014 2.38542e-014
rhumerus -27.2853 -10.0945 -79.3339
rradius 37.2484
rwrist 3.56908
rhand -16.3615 13.8355
rfingers 7.12502
rthumb 9.85138 -15.9141
lclavicle -1.96797e-014 2.38542e-014
lhumerus -36.9394 16.3725 81.9004
lradius 18.8686
lwrist -17.2854
lhand -11.2762 25.2158
lfingers 7.12502
lthumb 14.7544 54.6707
rfemur 8.99324 2.73723 27.3359
rtibia 29.76
rfoot -9.0996 2.91169
rtoes -13.9003
lfemur -27.5252 -2.20878 -19.8368
ltibia 24.9966
lfoot -6.04327 2.98566
ltoes -7.54511
325
root 6.20306 17.3128 14.7266 -0.204757 37.5966 -1.70542
lowerback 4.40295 1.03217 0.755452
upperback -0.271097 1.48603 2.20638
thorax -2.78744 0.749171 1.74577
lowerneck -14.3159 -3.32672 -9.47518
upperneck 25.325 -3.18896 4.11726
head 10.7491 -1.81277 2.66916
rclavicle -8.97016e-015 -5.56597e-015
rhumerus -27.5569 -10.657 -79.3084
rradius 36.8645
rwrist 3.48434
rhand -16.2701 14.2698
rfingers 7.12502
rthumb 9.9396 -15.4756
lclavicle -8.97016e-015 -5.56597e-015
lhumerus -36.9065 16.6211 81.692
lradius 18.634
lwrist -17.4627
lhand -11.3348 25.8825
lfingers 7.12502
lthumb 14.698 55.3414
rfemur 8.2971 2.31916 26.8145
rtibia 31.8564
rfoot -7.12398 3.58557
rtoes -16.2565
lfemur -26.8462 -2.1237 -20.4634
ltibia 24.9859
lfoot -5.29189 3.33787
ltoes -10.7822
326
root 6.32228 17.3357 14.8707 -0.146169 38.1334 -1.31283
lowerback 4.27804 0.917817 0.355078
upperback -0.178166 1.30742 2.18834
thorax -2.62541 0.665068 1.96672
lowerneck -14.2773 -3.34646 -9.72191
upperneck 25.3179 -3.205 4.29923
head 10.7485 -1.82211 2.77514
rclavicle 1.41386e-014 -1.35174e-014
rhumerus -27.9417 -11.311 -79.088
rradius 36.7337
rwrist 3.79407
rhand -16.6283 14.1643
rfingers 7.12502
rthumb 9.59399 -15.5973
lclavicle 1.41386e-014 -1.35174e-014
lhumerus -36.8015 16.0523 82.1582
lradius 18.7216
lwrist -16.6548
lhand -11.815 25.8681
lfingers 7.12502
lthumb 14.2353 55.3602
rfemur 7.63867 1.75563 26.3283
rtibia 33.9653
rfoot -4.79726 4.58817
rtoes -17.5904
lfemur -26.0763 -2.01517 -20.9781
ltibia 25.083
lfoot -4.82034 3.02241
ltoes -9.96157
